<?xml version="1.0" encoding="utf-8"?>
<!-- Generator: Adobe Illustrator 26.0.2, SVG Export Plug-In . SVG Version: 6.00 Build 0)  -->
<svg version="1.1" id="Layer_1" xmlns="http://www.w3.org/2000/svg" xmlns:xlink="http://www.w3.org/1999/xlink" x="0px" y="0px"
	 viewBox="0 0 266.5 226.8" style="enable-background:new 0 0 266.5 226.8;" xml:space="preserve">
<style type="text/css">
	.st0{fill:#FFFFFF;}
</style>
<g>
	<g>
		<path class="st0" d="M139,41.1c0,0.1-0.1,0.2-0.1,0.3c0-0.1,0-0.1,0-0.2C139,41.2,139,41.2,139,41.1z"/>
	</g>
	<g>
		<path class="st0" d="M126.4,44.4c0.1,0.1,0.1,0.1,0.2,0.2l0,0C126.5,44.6,126.5,44.5,126.4,44.4z"/>
	</g>
	<g>
		<path class="st0" d="M126.6,44.6C126.6,44.6,126.6,44.6,126.6,44.6C126.6,44.6,126.6,44.7,126.6,44.6
			C126.6,44.7,126.6,44.7,126.6,44.6z"/>
	</g>
	<g>
		<path class="st0" d="M126.7,44.7C126.7,44.7,126.7,44.7,126.7,44.7C126.7,44.7,126.7,44.7,126.7,44.7L126.7,44.7
			c0,0,0.1,0.1,0.1,0.2C126.8,44.8,126.7,44.8,126.7,44.7z"/>
	</g>
	<g>
		<path class="st0" d="M108,87.6c0.1,0,0.2,0,0.3,0c0,0,0,0,0,0C108.2,87.6,108.1,87.6,108,87.6z"/>
	</g>
	<g>
		<path class="st0" d="M188.4,76.1C188.4,76.1,188.5,76.1,188.4,76.1C188.5,76.1,188.4,76.1,188.4,76.1
			C188.4,76.1,188.4,76.1,188.4,76.1z"/>
	</g>
	<g>
		<path class="st0" d="M193.3,73.6c-0.2,0-0.5-0.1-0.7-0.1c-0.2-0.1-0.3-0.1-0.5-0.2c-0.3-0.1-0.5-0.2-0.8-0.3
			c-0.6-0.2-1.3-0.2-1.9-0.3c-0.5-0.1-0.9-0.2-1.3-0.4c-0.2-0.1-0.5-0.2-0.7-0.2c-0.2-0.1-0.4-0.1-0.6-0.1c-0.3-0.1-0.7-0.1-1.1-0.1
			c-0.2,0-0.3,0.1-0.5,0.2c-0.2,0.2-0.5,0.4-0.6,0.6c-0.1,0.1-0.1,0.3-0.1,0.4c0,0.2,0.2,0.2,0.4,0.2c0.1,0,0.2,0,0.3,0
			c0.6,0.1,1.2,0.2,1.8,0.5c0.4,0.2,0.9,0.3,1.3,0.4c0.6,0.1,1.3,0.1,1.9,0.4c0.2,0.1,0.4,0.2,0.6,0.3c0.1,0.1,0.3,0.1,0.4,0.2
			c0.3,0.1,0.6,0.2,0.8,0.2c0.4,0.1,0.8-0.3,1.1-0.6c0.1-0.1,0.2-0.3,0.2-0.4C193.5,73.9,193.5,73.6,193.3,73.6z"/>
	</g>
	<g>
		<path class="st0" d="M196.9,74.2c-0.5-0.1-1-0.2-1.6-0.4c0,0-0.1,0-0.1,0c-0.1,0-0.2,0-0.3,0.1c-0.3,0.1-0.5,0.3-0.7,0.5
			c-0.2,0.2-0.5,0.8-0.1,0.9c0.5,0.2,1,0.3,1.6,0.4c0.4,0.1,0.8-0.3,1.1-0.6c0.1-0.1,0.2-0.3,0.2-0.5
			C197.1,74.4,197.1,74.2,196.9,74.2z"/>
	</g>
	<g>
		<path class="st0" d="M113.2,40.1c-0.4-0.3-0.7-0.5-1.1-0.8c0,0-0.1,0-0.1-0.1c-0.1,0-0.1-0.1-0.2-0.1c-0.2-0.1-0.4-0.1-0.6-0.1
			c-0.2,0-0.5,0.1-0.2,0.3c0.4,0.3,0.7,0.6,1.1,0.8c0.3,0.2,0.7,0.2,0.9,0.2c0.1,0,0.2,0,0.3-0.1C113.3,40.3,113.3,40.2,113.2,40.1z
			"/>
	</g>
	<g>
		<path class="st0" d="M161,17.5c0,0.3,0.1,0.8,0.5,0.7c0.1-0.1,0.2-0.2,0.3-0.3c0.1-0.2,0.2-0.6,0.2-0.9c0-0.3,0-0.5-0.1-0.8
			c0-0.1-0.1-0.3-0.1-0.4c-0.1-0.3-0.2-0.6-0.2-0.9c-0.1-0.4-0.2-0.8-0.3-1.2c0-0.1-0.1-0.3-0.2-0.4c-0.1-0.1-0.1-0.1-0.2-0.1
			c-0.1,0-0.2,0.1-0.3,0.1c-0.1,0.1-0.2,0.3-0.2,0.5c-0.1,0.3-0.1,0.6-0.1,0.9c0.2,0.9,0.4,1.8,0.7,2.6C161,17.4,161,17.5,161,17.5z
			"/>
	</g>
	<g>
		<path class="st0" d="M161.6,19c0,0-0.1,0-0.1,0c-0.1,0.1-0.2,0.2-0.3,0.3c-0.1,0.2-0.2,0.6-0.2,0.9c0,0.5,0.1,0.9,0,1.4
			c0,0.3,0.1,0.9,0.5,0.7c0.1-0.1,0.2-0.2,0.3-0.3c0.1-0.3,0.2-0.6,0.2-0.9c0-0.5,0-0.9,0-1.4C161.9,19.5,161.8,19,161.6,19z"/>
	</g>
	<g>
		<path class="st0" d="M97.2,81c-0.2-0.2-0.4-0.4-0.7-0.4c-0.1,0-0.2,0-0.3,0c-0.2,0-0.4,0-0.7,0c-0.3,0-0.5,0-0.8,0.1
			c-0.2,0.1-0.4,0.1-0.6,0.2c-0.2,0.1-0.3,0.2-0.5,0.2c-0.2,0.1-0.5,0.1-0.7,0.2c-0.5,0-0.9-0.1-1.4-0.2c-0.1,0-0.2,0-0.3,0.1
			c-0.1,0.2,0,0.4,0,0.6c0.2,0.4,0.6,0.8,1,0.8c0.6,0.1,1.1,0.2,1.7,0.2c0.3,0,0.7-0.1,1-0.3c0.2-0.1,0.3-0.1,0.5-0.2
			c0.4-0.2,0.7-0.2,1.1-0.3c0.2,0,0.5,0,0.7,0c0.1,0,0.2,0,0.3-0.1c0.1-0.2,0-0.4,0-0.6C97.4,81.3,97.3,81.1,97.2,81z"/>
	</g>
	<g>
		<path class="st0" d="M101.2,80.6C101.2,80.6,101.2,80.6,101.2,80.6c-0.6,0.1-1.2,0.1-1.8,0.2c-0.4,0-0.9,0.4-1.1,0.7
			c-0.1,0.1-0.1,0.3-0.1,0.4c0,0.2,0.2,0.3,0.4,0.3c0.6,0,1.1-0.1,1.7-0.2c0.4-0.1,0.9-0.3,1.1-0.7c0.1-0.1,0.1-0.3,0.1-0.4
			C101.5,80.7,101.4,80.6,101.2,80.6z"/>
	</g>
	<g>
		<path class="st0" d="M115.5,42.1c-0.4-0.3-0.7-0.7-1.1-1c-0.3-0.3-0.7-0.4-1-0.4c-0.1,0-0.2,0-0.2,0.1c-0.1,0.1,0,0.2,0.1,0.3
			c0.4,0.3,0.7,0.7,1.1,1c0.3,0.2,0.7,0.4,1,0.4c0.1,0,0.2,0,0.2-0.1C115.6,42.4,115.6,42.2,115.5,42.1
			C115.5,42.1,115.5,42.1,115.5,42.1z"/>
	</g>
	<g>
		<path class="st0" d="M211.4,75.2c-1-2-2.4-2.4-4-3.7c-1.5-1.1-2.7-2.9-3.8-4.4c-1.2-1.6-2.1-3.6-3.1-5.3c-1-1.7-2.3-2.9-3.8-4.2
			c0,0,0,0,0.1,0.1c-1.8-1.7-2.9-3.3-5.1-4.5c-1.8-1-3.9-2.8-5.9-3.2c-4.9-1-10-1.3-15.1-0.6c-5.3,0.7-10.1,3.6-14.7,6.1
			c-4.2,2.3-9.2,6.2-11.2,10.8c-1.8,0.1-2.6,2.6-3.2,4c-0.9,1.9-1.7,3.9-2.6,5.8c-0.7,1-1.5,2.5-1.8,3.7c-0.8,1.6-1.5,3.3-2.3,4.8
			c0-1.5-0.1-3.1,0-4.6c-0.5-1.5-0.2-3.5-0.1-5.1c0-1.8-0.1-3.5,0.2-5.3c0-0.7,0-1.3-0.1-2c0.3-2,0.7-4,0.8-6c0.8-2.6,2.9-4.9,4.4-7
			c1.7-2.4,3.6-5.1,5.8-7c4.2-2.3,8.3-5.4,12-8.6c3.7-3.3,7-7.3,8.9-12.1c1.7-4.3,1.1-10,0.5-14.6c-0.3-2.3-1.7-12.3-6-9.1
			c-1.2,0.5-2.4,2.4-3.3,3.3c-1.1,0.7-2.3,1.7-2.9,2.9c-6,4.2-11.5,8.6-16.2,14.3c-2.1,0.6-3.2,4.6-3.9,6.5c-0.9,2.7-2.2,5-2.2,8
			c-0.3,1.4-0.6,2.7-0.8,4.1c-2.5-4.9-7.7-9.9-12.4-12.4c-2.3-1.2-4.9-1.5-7.2-2.5c-2.4-1.1-5-1.9-7.6-2.7c-2.5-0.1-3.5,1.6-2.8,4
			c0.5,2,0.9,4,1.4,6c0.9,7.1,6.2,11.1,11.8,14.5c2.7,1.6,5,3.4,8.2,3.5c3.7,0.1,5.8-0.1,8.5,3c-0.1,0.9-0.3,1.7-0.4,2.6
			c-0.8,2.8-1.7,5.7-2.2,8.6c-0.4,2.4-1,5.9-0.2,8.3c0,0.9,0,1.8,0.1,2.6c-0.2,1.8-0.3,3.7-0.3,5.5c-1.2-2.6-2.4-5.3-3.8-7.9
			c-1.1-2.1-3-3.8-4.6-5.5c-1.8-3.1-4.8-5.4-7.5-7.5c-2.9-2.3-6.2-2.9-9.6-3.9c-6.2-1.8-12.4-4.4-18.8-2.1c-2.6,0.2-4.3,0.6-6.5,2.1
			c-1.4,1-4.1,2-4.3,4.2c-2,2.2-3.8,4.2-6,6.1c-0.6-0.1-1,0-1.5,0.4c-1.7,0.8-3.6,1.6-5.4,2.1c-1.2,0.3-2.7,0.7-2.3,2.5
			c-0.7,1.9,1.7,4,2.8,5.2c1.8,2.1,3.6,3.6,6,4.9c4.2,2.3,8.6,4.1,13.2,5.2c-0.1,0-0.3-0.1-0.4-0.1c0.7,0.2,1.4,0.4,2,0
			c4.1,0.6,8.2-0.2,12.2-0.2c4,0,7.9-0.8,11.9-1.5c0.7,0,1.4,0.1,2.2,0.1c0,0,0,0,0,0c1.1,0,2.1,0.1,3.2,0c0.9,0.9,2.4,0.4,3.5,0.5
			c1.9,0.2,3.8,0.7,5.6,1.2c0.7-0.1,1.3,0,2,0.1c0,0-0.1,0-0.1,0c1.9,0.2,4.3,0.7,5.3,2.7c0,0,0,0,0,0c0,0,0,0,0,0l0,0
			c0.2,0.3,0.2,0.6,0.2,0.9c0.1,0.5,0.1,1,0.1,1.5c0,0.1,0,0.3,0,0.4c0,0.1,0,0.2,0.1,0.3c-0.2,2.2-3.5,0.1-4.2,1.2
			c-0.1-0.2-0.4-0.5-0.6-0.4c-0.2,0-0.5,0.1-0.7,0.1c-0.2-0.1-0.7-0.3-0.9-0.3c0,0,0,0-0.1,0c-0.4-0.1-0.7,0.1-0.8,0.5
			c-0.5,0-0.2,0.9,0.1,1.1c0,0,0,0.1,0,0.1c0.1,0.8,0.7,1.3,1.4,1.3c0.4,0.1,2.3,0.1,2.4,0c0.3,0,2.9,0,3.3,0c0.4,0.1,1,0.4,1.4,0.3
			c0.6,0.2,1.2-0.3,1.8-0.4c0.6-0.1,1.4,0.1,2,0.2c1.2,0.2,3.9,0.7,4.9-0.2c1.4,0.1,8.5,1.1,8.7-1.3c0.2-2.6-7.4-1.4-8.7-1.3
			c-0.4-0.2-1.2-0.2-1.6-0.2c-0.5-0.4-0.5-1-0.3-1.8c1.4-2.4,4.3-3.1,6.6-4.1c3.7-1.5,7.4-3.2,11.1-4.6c3.8-1.5,7.4-3.1,11.3-4.2
			c4.6-1.3,9.4-2,14.1-2.7c3,0.1,6,1.6,8.9,2.5c3.1,1,6.7,1,9.9,0.9C201.6,81.8,214.9,82.6,211.4,75.2z M109.2,83.1
			c-5.1-0.3-10.1,1.1-15.2,1.3c-5,0.2-10,1.5-15,0.4c-2.7-1.4-5.7-2.3-8.5-3.5c-3.4-1.5-5.8-3.3-8.7-5.6c5.9-1,11.1-4.1,14-9.8
			c0.1-0.6,0.8-1.1,1.2-1.4c1.3-1.2,2.8-2.2,4.4-2.8c0.5-0.3,1.1-0.5,1.7-0.6c0.7-0.3,1.5-0.4,2.3-0.5c0.4-0.1,0.7-0.2,1.1-0.3
			c2.5,0,5,0.5,7.4,1c0,0-0.1,0-0.1,0c3.3,0.8,6.8,1.7,9.8,3.2c3.3,1.7,6.5,3.7,9.7,5.6c-0.2-0.1-0.3-0.2-0.5-0.3
			c1.3,0.8,2.6,1.6,3.8,2.7c1.3,2.5,3,4.8,3.8,7.5c-2-2.1-5-3.3-7.7-3.8c-5.6-3.2-12-4.7-18.5-4.4C91.5,72,88.7,73,86,74
			c-1,0.4-2.1,0.6-3.2,0.8c-0.3,0.1-1.7,0.1-1.9,0.3c-0.3,0.5,0,0.8,0.5,0.8c3.4,0.4,6.4,0.1,9.8-0.4c3.2-0.4,6.8,0.3,9.9,1
			c-0.2,0-0.4-0.1-0.5-0.1c1.8,0.4,3.6,1,5.4,1.4c-0.2,0-0.4-0.1-0.6-0.1c0.5,0.1,0.9,0.3,1.4,0.5c0.8,1.5,3.3,1.9,4.7,2.7
			c1.6,0.8,3.2,2,4.9,2.7C113.9,83.3,111.6,83.3,109.2,83.1z M136.9,37.8c0.6-3.8,3-7.2,4.4-10.7c3.2-3.3,6.4-6.4,9.9-9.3
			c3.6-2.9,7.3-5.5,10.9-8.5c1.1,3.8,1.2,8,1.2,12c0,4.4-2.7,8.5-5.4,11.7c-1.4,1.2-2.5,2.5-4.1,3.4c-1.4,0.8-2.8,1.6-4.1,2.5
			c-2.5,1.7-4.6,3.4-6.8,5.6c-0.5,0.3-1,0.7-1.4,1.1c0.4-0.7,1-1.8,1.2-2.7c1.4-3.4,3.4-7,5.9-9.7c2.4-2.6,4.7-5.3,6-8.6
			c0.3-0.4-0.1-0.9-0.5-1c-0.5,0-0.7,0.7-0.9,0.9c-0.9,1-1.8,1.8-2.7,2.7c-1.6,1.5-3.2,3.1-4.7,4.7c-3.6,4.1-6.1,9-8.6,13.9
			C136.9,43.2,136.6,40.5,136.9,37.8z M119.6,47.4c0.1,0.1,0.2,0.1,0.3,0.2c0,0,0,0,0,0c0.1,0,0.1,0.1,0.2,0.1
			C119.9,47.6,119.8,47.5,119.6,47.4z M125.8,49.8c-2.2-0.3-3.9-0.9-5.8-2.1c0,0,0.1,0,0.1,0.1c-4.4-3.3-10.5-5.9-12.3-11.8
			c-0.2-1.6-0.5-2.6-0.9-4.1c0-0.4,0-0.8-0.1-1.2c2.5,0.7,4.9,1.9,7.4,2.6c3,0.8,5.2,2.3,7.6,4.4c3.9,3.5,7.6,8.1,9.3,13.2
			c0,0.5,0,1-0.1,1.4c-1.5-3.3-3.1-6.6-6-8.9c-1.1-0.9-2.5-1.5-3.9-1.9c-1.9-0.6-3.1-1.3-4.5-2.8c0,0,0,0,0,0
			c-1.1-0.8,0.4,2.2,0.6,2.5c1,1.4,2.3,2.4,3.8,3.1c1.3,1,2.6,1.8,3.8,3c0,0-0.1-0.1-0.1-0.1c1,1.1,2,2.1,2.9,3.2
			C127.1,50.1,126.4,49.9,125.8,49.8z M206.3,76.8c-2.4,0.8-5.3,0.4-7.8,0.4c-3,0-5.6-0.4-8.6-0.7c-3.2-0.9-6.6-2.6-9.9-2.6
			c-4.3-0.1-8.1,1.4-12.2,2.2c-8,1.6-15.3,4.3-22.2,8.9c0,0,0,0-0.1,0c-0.3-0.2-0.6-0.2-1-0.2c0,0,0,0,0,0c-0.6,0.1-1.3,0.5-1.9,0.7
			c2.7-1.9,4.8-4.4,7.3-6.6c3.2-2.9,7-5.2,10.8-7.3c5.7-3.2,12.4-5.4,18.9-5.2c1.1,0.2,1.6-0.9,0.6-0.9c-2.2-1.3-5.6-1.2-8.1-1.1
			c-3.6,0.1-6.4,0.8-9.7,2.2c-6.4,2.8-12.9,6.2-17,12.3c-2.4,1.8-4.6,3.9-7,5.7c1-2.5,2.1-4.9,3.3-7.3c1.4-2.7,3.4-5.1,4.8-7.9
			c0.6-0.7,1-1.4,1.5-2.1c4.3-4.5,9.4-7.6,14.9-10.4c2.7-1.4,5.8-3,8.9-3.2c2.3-0.2,5.3-0.6,7.6-0.2c0,0,0,0,0,0
			c1.9,0.4,3.8,0.7,5.7,0.9c0,0,0.1,0,0.1,0c2.1,1.3,4.2,2.1,6.1,3.7c1.3,1.5,2.9,2.8,4.2,4.4c1.3,1.5,2.3,3.5,3.3,5.2
			c2.1,3.7,4.9,6.3,8.3,8.7C206.8,76.6,206.6,76.7,206.3,76.8z M174.6,66.9c-0.1,0-0.1,0-0.2,0c0.2,0,0.3,0,0.5-0.1
			C174.8,66.9,174.7,66.9,174.6,66.9C174.6,66.9,174.6,66.9,174.6,66.9z"/>
	</g>
	<g>
		<path class="st0" d="M190.8,121.1c1-0.1,1.2-0.9,1.2-1.7c0-0.7-0.5-1.6-1.1-1.7c0,0,0,0,0,0c-1.4-0.2-2.8,0-4.2-0.2
			c-0.3-0.1-0.6-0.1-0.9-0.1c-0.5,0-0.9,0-1.4,0.1c-0.2,0-0.5,0-0.7,0.1c-0.6,0.1-1.3-0.1-1.9-0.1c-1.1,0-1,0.9-1.1,1.9
			c-0.1,0.9-0.2,1.8,0.9,1.8c0.9,0,1.8,0.4,2.7,0.4c0.7,0,1.5-0.1,2.2-0.2C187.9,121.3,189.3,121.3,190.8,121.1
			C190.8,121.1,190.8,121.1,190.8,121.1L190.8,121.1L190.8,121.1z"/>
	</g>
	<g>
		<path class="st0" d="M178.9,120.9c0.5-0.1,0.5-0.9,0.4-1.7c-0.1-0.6-0.5-1.5-0.9-1.7c0,0,0,0,0,0c-0.8-0.2-1.5,0-2.3-0.1
			c-0.2-0.1-0.4-0.1-0.5-0.1c-0.3,0-0.5,0.1-0.7,0.1c-0.1,0-0.3,0.1-0.4,0.1c-0.3,0.1-0.7,0-1.1,0c-0.6,0-1,0.8-0.9,1.8
			c0.1,0.9,0.7,1.9,1.3,1.8c0.5,0,1,0.3,1.5,0.3c0.4,0,0.8-0.1,1.2-0.2C177.3,121.1,178.1,121.1,178.9,120.9
			C178.9,120.9,178.9,120.9,178.9,120.9L178.9,120.9L178.9,120.9z"/>
	</g>
	<g>
		<path class="st0" d="M92.4,120.3c1.1-0.1,1.6-0.8,1.6-1.6c0-0.7-0.8-1.7-1.4-1.9c0,0,0,0,0,0c-1.6-0.2-3.2,0-4.8-0.1
			c-0.3-0.1-0.7-0.1-1-0.1c-0.5,0-1,0-1.5,0.1c-0.3,0-0.6,0.1-0.8,0.1c-0.7,0.1-1.5,0-2.2,0c-1.3,0-1,0.8-1.1,1.9
			c-0.1,0.9-0.4,1.9,0.8,1.8c1,0,2,0.4,3,0.4c0.8,0,1.7-0.1,2.5-0.2C89,120.5,90.7,120.5,92.4,120.3
			C92.3,120.3,92.3,120.3,92.4,120.3L92.4,120.3L92.4,120.3z"/>
	</g>
	<g>
		<path class="st0" d="M79.2,120.3c0.4-0.2,0.2-0.6,0.2-1.3c0-0.5,0.3-1.4,0.1-1.7c-0.2-0.3-0.5-0.5-0.7-0.4c-0.3,0-1.8,0.2-2,0.2
			c-0.1,0-0.3-0.1-0.4-0.1c0,0,0,0-0.1,0c-0.2-0.1-0.4-0.2-0.6-0.2c0,0,0,0-0.1,0c-0.2-0.1-0.3-0.1-0.5,0c-0.2,0.1-0.3,0.3-0.4,0.6
			c0,0-0.1,0-0.1,0c-0.1,0.1-0.2,0.2-0.2,0.4c-0.1,0.5,0.1,0.8,0.4,0.9c0,0,0,0.1,0.1,0.1c0.1,0.3,0.2,0.7,0.3,0.9
			c0.4,0.6,0.9,0.7,1.4,0.7c0.1,0,0.2,0.1,0.3,0.1c0.2,0,0.3,0.1,0.5,0.1C77.5,120.6,79,120.5,79.2,120.3L79.2,120.3L79.2,120.3z"/>
	</g>
	<g>
		<path class="st0" d="M43.5,157.8c0-1.7-0.2-2.2,0.7-3.7c0.7-1.4,1.1-2.8,1.5-4.3c0.9-3.3,2.3-5.2,5.4-6.3c1.9-0.7,4.1-1.1,4.9-3.3
			c1.4-3.6-1.3-3.8-3.9-4.7c-2.5-0.9-5.2-1.4-7.8-1.6c-1.4-0.1-2.8,0.3-4.2,0.7c-1.4,0.4-2.5,0.2-3.9,0.4c-2.4,0.3-3.9,1.8-3.7,4.6
			c0.1,0.9,1.1,2.6,1.7,3.3c0.5,0.7,0.8,0.8,1.7,0.7c0.9,1.1,2.7,2.2,2.7,3.7c0,0.7-0.7,1.3-0.8,2.1c0,0.4,0.2,0.9,0.1,1.3
			c-0.2,1.6-1.5,3.4-2.1,4.9c-0.6,1.7-0.6,3.5-1.1,5.2c-0.3,1.5-1.3,2.7-1.6,4.2c-0.3,1.4,0.6,2.1,1,3.3c-1.8,0.8-2,5.6-2.4,7.2
			c-0.4,1.9-1,4.7-3.4,4.7c-1.2-1.3-2.2-2.5-1.8-4.3c0.3-1.4,0.2-1.3-0.3-2.8c-0.4-1.4-0.2-2.9-0.5-4.3c-0.2-0.7-0.6-0.9-1-1.5
			c-0.6-0.9-0.8-1.9-1.2-2.9c1.3-1,0.1-2.7,0-4c-0.1-1-0.1-2-0.1-3c0-2.1-0.7-2.9-1.4-4.8c-0.6-1.7,0.2-3.7-1-5.2
			c0.7-0.7,1-1.8,1-2.8c1.9-1,4.8-2.1,4.4-4.9c-0.4-2.8-2.7-3.7-5.1-4c-2.2-0.3-4.4-0.8-6.6-0.2c-2.4,0.7-5.2,0.4-7.6,1.4
			c-2.4,1-2.5,3.7-0.5,5.3c1.8,1.4,4.2,0.6,6,1.9c2.1,1.6,2.8,4.9,3.1,7.4c0.4,3.3,0.8,6.4,2.1,9.5c-1.6,2.9,0.5,6,1.3,8.8
			c0.7,2.1,1.8,5,1.9,7.2c0,1-0.5,1.9-0.4,2.9c0.2,1.4,0.8,3,1.2,4.3c0.7,2.2,1.4,4.3,2,6.5c0.5,2.1,0.7,4.9,2.7,6
			c1.3,0.8,3,1.5,4.5,1.2c2.2-0.4,3.5-1.6,4.6-3.5c1.3-2.5,0.7-2.9-0.2-5.4c2.5-1.1,2.3-6.8,3.1-8.9c0.4-1.1,0.7-2.2,1.3-3.2
			c0.2-0.4,0.6-0.5,0.7-0.9c0.7-1.8,0.2-4.6-0.3-6.4C41.9,168.5,43.5,159,43.5,157.8z"/>
	</g>
	<g>
		<path class="st0" d="M86.5,189.3c-2.4-0.4-3.7-2.4-5.3-4.2c1.3-1.7,0.4-5.2,0-7.1c-0.5-2.5-1.1-4.8-1.3-7.4
			c-0.2-2.3-0.7-4.3-1.2-6.5c-0.5-2.2-0.3-4.5-0.9-6.6c-0.7-2.7-1.9-5.3-2.2-8.1c-0.2-1.9,0.6-3.4,0.1-5.3c-0.5-1.6-0.7-3.5-1.6-4.9
			c-0.9-1.4-1.6-2.9-3.1-3.3c-1.8-0.5-4.8,0-6.4,0.9c-1.1,0.7-1.5,1.4-1.7,2.7c-0.3,2-0.8,3.9-1.3,5.9c-0.4,1.9-1.5,3.4-1.9,5.3
			c-0.4,1.9,0.1,3.9-0.7,5.8c-0.4,0.9-1.2,1.5-1.3,2.6c-0.1,1.1,0.5,2.1,0.5,3.2c-0.1,1.7-2.1,3.5-0.8,5c-0.7,0.7,0.2,1.7,0,2.4
			c-0.2,0.8-0.9,1.1-1,2c0,0.4,0.1,0.8,0.3,1.2c0.4,0.6,0.4,1-0.1,1.4c-0.3,0.2-0.5,0.5-0.7,0.8c-0.1,0.5-0.2,0.9-0.1,1.4
			c-0.3,1.2-1,1.8-1.2,3.1c-0.3,1.3-0.3,2.8-0.6,4.1c-0.3,1.5-0.6,3.2-1.9,4.2c-1.3,0.9-3.1,0.8-4.5,1.6c-1.1,0.7-2.4,2.1-1.6,3.6
			c0.6,1.2,2.3,1.4,3.4,1.5c3.8,0.5,7.7-0.2,11.4-0.5c0.7-0.1,3.8,0.4,4.2-0.2c0.6-0.7-0.4-2.6-0.7-3.3c-0.9-1.7-2.1-1.7-3.3-2.8
			c-1.6-1.5-0.3-2.2,0.2-3.7c0.4-1.1,0-2.5,0.9-3.5c1-1,3.6-1.4,4.9-2c1.2,1.9,4.8,0.2,6.5,0.4c1.4,1.2,3,2.7,3.3,4.7
			c0.4,2.4-1.5,4.1-3,5.5c-1.2,1.1-2.6,2.3-1.3,3.9c0.9,1.2,2.8,1.7,4.2,2.1c1.2,0.3,2.6,0.7,3.8,0.6c1.1-0.1,2-0.5,3.1-0.5
			c1.2,0,1.1-0.2,2-0.7c0.6-0.4,0.6-0.3,1.5-0.4c0.9-0.2,1.6-0.6,2.2-1.4C90.9,190.4,88.3,189.6,86.5,189.3z M65.3,161.7
			c-0.1-1.3,0-2.4,0.3-3.6c0.3-1.1,1.1-2.2,0.9-3.4c0.5-0.2,1.3-0.2,1.5-0.9c3.3,0.3,2.9,6.3,3.3,8.7c0.3,1.8,0.4,3.4,1.1,5.1
			c0.7,1.6,1.2,2.5-0.5,3.5c-1.4,0.8-5.6,2.2-7,0.7C62.8,169.6,65.4,164.5,65.3,161.7z"/>
	</g>
	<g>
		<path class="st0" d="M138.3,193.9c0-0.2-0.3-0.5-0.3-0.7c0.1-0.5,0.6,0,0.7-0.1c0.4-0.4,0.6-0.2,0.9-1c0.2-0.6,0.2-1.2,0.4-1.8
			c0.4-1,0.7-1.5,0.7-2.7c0-1.1-0.2-2.2-0.8-3.1c-0.6-0.9-1.7-1.5-2.8-1.6c-1.5-0.1-1.9,0.8-2.6,2.2c-0.6,1.2-0.8,2.5-2,1.3
			c-0.7-0.7-1.1-2.4-1.4-3.4c-0.9-3.2-0.6-6.5-1.3-9.7c-0.4-1.7-1.4-3-1.8-4.7c-0.5-2.1,0.7-2.9,1.8-4.5c0.4-0.7,0.7-1.6,1.2-2.2
			c0.4-0.5,1-0.6,1.5-0.9c1.1-0.8,1.6-1.6,1.9-3c0.2-1,1-6.9-0.4-6.9c0.5-1.9,0.6-1.8-0.3-3.6c-0.2-0.4-0.5-0.5-0.6-0.8
			c0-0.2,0.4-0.8,0.3-1.3c-0.3-1.3-2.1-2.6-2.6-4c-0.5-1.4-1.1-2.4-2.4-3.2c-1.2-0.8-2.7-1.1-4.1-1.4c-1.9-0.3-3.9-1-5.8-1
			c-1.4,0-2.7,0.7-4.1,0.9c-1.8,0.3-3.5,0-5.3-0.4c-3.1-0.6-6.2,0.1-9.3,0.4c-2.5,0.2-4.6,1.4-4,4.4c0.4,1.7,1,1.5,2.3,1.7
			c1.3,0.2,1.9,0.8,2.5,2c1,2.1,1,4.7,1.2,7c0.6,7.6-1.2,15.2-1.1,22.8c0,2,0.7,4,0.6,6c-0.1,1.6-0.3,3.4-0.6,5
			c-0.2,1.4-0.8,2.3-2,2.7c-0.4,0.1-0.9,0-1.3,0.2c-0.4,0.2-0.6,0.6-0.9,0.8c-1.5,0.7-3.6,0.1-4.4,2.2c-1.3,3.5,3.8,3.8,5.8,3.5
			c1.7-0.3,3.4-0.8,5.2-0.6c1.7,0.1,3.3,0.6,5,0.4c2.5-0.2,5.9-0.8,6.6-3.9c0.7-3.4-4-3.9-6-5.2c-3.5-2.1-2.1-5.9-1.7-9.3
			c0.3-2.7-0.7-7.6,3.1-8.2c1.4-0.2,3,0.3,4.5,0.2c1.9-0.2,3.9,0.2,5.8,0c1,1.4,2.2,2.8,2.7,4.5c0.5,1.5,0.2,3,0.3,4.5
			c0.1,0.8,0.5,1.7,0.4,2.5c-0.1,0.6-0.5,1.1-0.5,1.8c0,1.9,0.7,4.2,1.1,6.1c0.8,4.3,2.7,6,6.6,7.2
			C131.8,195.2,138.3,195.9,138.3,193.9z M123.4,159.1c-2.6,0-4.5,1.4-6.8,1.9c-2.1,0.4-3.2-1.6-5.4-1.1c-2,0.5-3.7,0.8-4.3-1.8
			c-0.6-2.4,1-4.5,0.9-6.9c-0.1-1.9-1.1-4.6,0.4-6.2c1.3-1.3,4.3-1.8,6-1.8c1.5,0,2.9,0.6,4.3,0.4c1.2-0.2,2.1-0.4,3.4-0.1
			c1,0.3,2.2,0.7,3.1,1.4c0.7,0.6,0.5,1,1.8,1.1c1.9,2.6,2.7,4.9,1.2,7.7C127,155,125.1,159.1,123.4,159.1z"/>
	</g>
	<g>
		<path class="st0" d="M180.7,146.2c-1.5-1-1.9-3.1-3.2-4.4c-1.4-1.4-2.7-2.3-4.4-2.8c-4.3-1.3-7.8-3.1-12.3-2.8
			c-1,0.1-2.1,0.3-3.2,0.1c-0.4-0.1-0.8-0.5-1.2-0.5c-0.8-0.1-1.5,0.6-2.3,0.7c-0.9,0.1-1.8-0.3-2.7-0.3c-2.2,0-6.1,0.3-7.8,1.8
			c-1.8,1.5-0.2,0.7,0.2,1.5c0.6,1.3-0.6,2.2,1.2,2.7c0.8,0.2,1.5-0.5,2.3,0c0.7,0.4,0.7,1.7,1.4,2.1c0.8,0.5,3.3-0.8,2.7,0.4
			c-0.2,0.3-1.2,0.6-1.4,0.9c-0.7,0.8-0.7,1.5-0.7,2.6c0.1,2.4,0.5,4.1,0,6.5c-0.5,2.2-0.2,3.9,0.2,6.1c0.2,1.2,0.2,2.1,0.1,3.3
			c-0.1,0.7-0.5,1.4,0.1,2.1c-0.3,0.9,0.1,2.3,0.1,3.3c0.1,1.5-0.1,2.9-0.2,4.4c-0.1,1.3-0.8,4.9,0.4,5.8c0.2,1.9-0.4,3.8-0.4,5.6
			c0,2-1.3,1.9-3,2.6c-2.3,1-5.1,3.6-3.4,6.5c0.7,1.2,1.8,1.2,3,1.1c2.4-0.2,4.6-0.7,7-0.7c2,0,3.9,0.1,5.8,0c1.8-0.1,2.1,0,3.2-1.3
			c1.4-1.8,0.9-2-0.2-3.5c-0.4-0.2-0.6-0.5-0.7-0.9c0.1-0.3,0.1-0.6,0-0.8c-0.3-0.4-1.6-0.5-1.9-0.6c-2.6-0.7-3.5-1.3-3.6-4.2
			c-0.1-2-0.1-4,0-6c0-0.8,1.4-7.1-0.4-6.9c1.3-0.6,2.7-1.3,4.1-1.5c2-0.4,3.3,0.1,5,0.5c3.8,0.9,8.2-2,11.3-3.9
			c2.9-1.8,5.4-5.6,6-9.1C182.4,153.9,183.4,147.8,180.7,146.2z M154.9,155.6c1.9-1.4,0.3-2.5,0.4-4.1c0.1-1,0.7-0.5,0.8-1.3
			c0.1-0.9-0.6-1.8-0.9-2.6c-0.5-1.3-0.7-2.7,0.6-3.7c0.3-0.2,0.6-0.3,0.9-0.4c2.3-0.9,5.7-0.7,8-0.6c2.8,0.1,5.5,0.9,7.5,2.9
			c2,2,2.9,4.9,3,7.8c0.1,3.5-0.8,5.4-4.1,6c-1.3,0.3-1.7,1.1-2.9,1.5c-0.9,0.3-2.1,0.3-3.1,0.4c-2.5,0.2-5.1,0.5-7.6,0.1
			C157.1,160.4,153.5,156.6,154.9,155.6z"/>
	</g>
	<g>
		<path class="st0" d="M210.5,197.1c3.2,0.4,6.1-0.9,6.5-4.6c0.5-4.4-3-4.5-6.2-4.1c-2.6,0.3-6.8,1-7.2-2.6
			c-0.2-1.8,0.4-3.7,0.5-5.4c0.1-2.3-0.4-4.6-0.4-6.9c0-0.9,0.4-2,0.3-2.8c-0.1-0.6-0.4-0.9-0.5-1.4c-0.1-0.7,0-1.7,0-2.4
			c0-0.7,0.5-1.8,0.5-2.4c0-0.2,0.1-0.4,0.1-0.6c-0.4-0.2-0.6-0.4-0.7-0.8c-0.1-0.5-0.1-1,0-1.5c0.4-3.8,0.8-7.4,0.8-11.3
			c0-1.3,0.1-2.4,1-3.3c0.2-0.2,0.7-0.2,1-0.4c0.6-0.6,0.4-1.1,0.8-1.8c0.9,1.3,2.2,0.7,3.4,0.6c1-0.1,1.9,0.2,3,0.2
			c2-0.1,4.8-2.3,4.2-4.4c-0.2-0.6-0.7-1.2-0.9-1.9c-0.2-0.5-0.1-1.2-0.6-1.6c-0.3-0.2-0.8,0.1-1,0c-1.1-0.6-1.3-1.3-2.7-0.9
			c-0.5,0.1-2,0.8-1.7,1.5c-1.6-1.3-2.6-2.2-3.8,0.1c0-1.7-1.4-2.3-2.3-1.4c-0.8,0.8,0,1.2-1.4,0.5c-0.6-0.3-1-0.9-1.7-1
			c-1.2-0.2-3.2,0.5-4.4,0.6c-2.2,0.2-4.3,0.1-6.5,0.1c-2,0-4.2-0.2-5.8,1.2c-1.4,1.3-3.3,4-2,5.9c0.9,1.3,3,1.6,4.5,1.7
			c1.3,0.1,2.6,0,3.9-0.1c1.5-0.1,1.6-0.3,2.1-1.7c0.8,1.1,2.5,1.2,3.1,2.4c-0.4,1.6,0.1,3.1,0.4,4.6c0.5,1.9,0.6,3.5,0.3,5.5
			c-0.5,3.5-0.2,7,0.2,10.5c0.2,1.8-0.4,3.4-0.6,5.1c-0.2,2-0.1,4.2,0,6.2c0.1,2.7,1.3,6.4-0.5,8.8c-1.2,1.6-3.2,2.2-5,2.5
			c-0.7,0.1-1.4,0.2-2.1,0.2c-1.2,0-2.1-0.9-3.2-1c-1.8-0.1-3.5,2.8-3.6,4.5c-0.4,3.3,2.6,4.2,5.2,3.7c1-0.2,2-0.7,2.9-0.7
			c0.8,0,1.7,0.4,2.6,0.4c2,0.1,4.1,0.1,6.2,0.1C202.9,196.5,206.7,196.4,210.5,197.1z"/>
	</g>
	<g>
		<path class="st0" d="M261.5,169c0.1-2.6-0.4-5-0.9-7.5c-0.2-1.1-0.3-2.3-0.6-3.4c-0.3-1-0.9-1.9-1.1-2.9c-0.3-2.1,0.3-3.9-0.7-5.9
			c-0.5-1.1-1.4-1.8-2-2.8c-0.6-0.9-0.9-2-1.6-2.8c-0.6-0.7-1.5-1.1-2.1-1.8c-0.7-0.8-1.1-1.8-1.9-2.5c-1.4-1.2-3.1-1.9-4.9-2.2
			c-1.7-0.4-3.6-0.6-5.3-0.2c-1.7,0.3-3.5,1.4-5.2,1.5c-0.6-0.8-0.8-0.4-1.7,0.4c-1.2-0.2-2.2-0.6-3.4,0c-0.4,0.2-0.7,0.7-1.2,0.8
			c-0.5,0.2-1.2,0.1-1.7,0.3c-1,0.5-1.1,1.6-1.8,2.4c-0.9,1-2.1,1.7-2.9,2.9c-1.7,2.4-2.4,5.9-3.1,8.7c-0.3,1.1-0.4,2.3-0.7,3.4
			c-0.2,0.8-1.5,2.4-0.3,2.8c-0.2,1.8-0.6,2.9-0.2,4.6c0.2,0.9,0.2,1.7,0.2,2.6c0,3,0,6,1.6,8.6c-0.8,2-0.3,4,0.3,6
			c0.6,1.9,0.9,4.3,1.7,6c0.6,1.3,1.9,2,2.5,3.1c0.9,1.6,0.9,2.1,3,2.3c0.5,0.6,0.4,1.6,0.9,2.3c0.5,0.6,1.5,0.9,2.2,1.2
			c1.4,0.6,2.7,1.6,4.1,2c2.9,0.9,8.1,1.6,10.8,0c1.1-0.6,1.7-1.5,3-1.9c1.6-0.5,2.6-1.4,4-2.5c0.6-0.4,3-2.1,2.5-3.2
			c-0.5-1.1-2.8,1-2.7-1.4c0.9-0.2,1.6,1.1,2.6,0.6c0.7-0.4,0.7-1.5,1.2-2.1c0.5-0.6,1.3-0.4,1.8-1c0.5-0.5,0.8-2.5,0.9-3.3
			c0.3-1.3,0.1-2.6,0.6-3.8c0.4-1.2,1.1-2.2,1.1-3.6C260.6,174.2,261.5,171.6,261.5,169z M225.8,173.9c-0.6-1.6-0.6-3.5-0.6-5.3
			c0-0.3,0-0.6,0-0.8c0.1-0.4,0.5-0.9,0.5-1.1c0-0.6-0.4-1.1-0.5-1.7c0-0.7,0.2-1.2,0.4-1.8c0.6-2,0.7-3.9,1-6
			c0.1-1.2,0.2-3.2,0.9-4.3c0.6-1,1.6-2.2,2.3-3.1c2-2.5,4.3-3.8,7.3-3.6c3.8,0.2,10.4-0.1,12.9,3.5c0.8,1.1,0.9,2.8,1.3,4.1
			c0.5,1.8,1.3,3.5,1.7,5.3c0.9,3.5,1.4,7.6,1.1,11.2c-0.3,3.8-0.7,7.3-1.5,11c-0.8,3.6-3.1,5.1-4.9,8.1c-2-0.7-2.9,1-4.6,1.5
			c-1.4,0.4-3.4,0.1-4.8-0.4c-1.4-0.5-2.2-1.7-3.5-2.4c-1.1-0.6-1.6-0.9-2.6-1.8c-0.5-0.4-1.3-0.8-1.7-1.3c-0.4-0.6-0.3-1-0.5-1.6
			c-0.3-0.7-0.4-1.3-1.1-1.6c-0.3-0.2-1.1,0-1.3-0.2c-0.6-0.4-1.3-2.6-1.6-3.4C225.6,176.7,226.5,175.5,225.8,173.9z"/>
	</g>
	<g>
		<path class="st0" d="M56.4,204.8c-0.2-0.2-0.4-0.4-0.5-0.7c-0.1-0.3-0.3-0.6-0.6-0.8c0,0,0,0,0,0c-0.1-0.1-0.3-0.2-0.4-0.3
			c-0.3-0.2-0.5-0.5-0.9-0.6c-0.5-0.1-1-0.3-1.5-0.5c-0.7-0.3-1.5-0.6-2.3-0.6c-0.3,0-0.6,0-0.9,0.1c-0.3,0-0.6,0.1-0.9,0.1
			c-0.1,0-0.3-0.1-0.4-0.1c-0.1,0-0.1-0.1-0.2-0.1c-0.2,0-0.4,0.1-0.5,0.1c-0.3,0.1-0.5,0.1-0.7,0c-0.3-0.1-0.6-0.1-1,0
			c-0.2,0-0.3,0.1-0.5,0.1c-0.8,0.1-1.8,0.2-2.2,0.9c-0.1,0.1-0.1,0.3,0.1,0.4c0.1,0.1,0.1,0.1,0.2,0.1c-0.1,0-0.2-0.1-0.3,0l-0.1,0
			c-0.1,0-0.2,0.1-0.2,0.3c0,0,0,0.1,0,0.2c0,0.3,0.2,0.6,0.5,0.6c0.2,0,0.3-0.1,0.4-0.2c0.1,0.1,0.3,0.1,0.4,0.1
			c0.1,0,0.3,0,0.4-0.1c0.1,0,0.2,0,0.2,0c0.1,0,0.2,0.3,0.3,0.4c0.1,0.3,0.3,0.6,0.6,0.6c0,0,0,0,0,0c-0.1,0.1-0.3,0.4-0.3,0.7
			c0,0.3,0,0.6,0.1,1s0.1,0.6,0.1,1c0,0.2-0.1,0.4-0.1,0.6c-0.1,0.2-0.2,0.5-0.2,0.7c0,0.4,0.1,0.8,0.2,1.2c0.1,0.4,0.2,0.7,0.2,1
			c0,0.1,0,0.2-0.1,0.3c0,0.1-0.1,0.3-0.1,0.5c0,0.1,0,0.3,0.1,0.4c0,0,0,0,0,0.1c0,0.2,0,0.5,0,0.7c0,0.2,0,0.4,0,0.6
			c0,0.3,0,0.7-0.1,1c0,0.4-0.1,0.8-0.1,1.2c0,0.4,0,0.9,0.2,1.1c0,0.2,0,0.3,0,0.4c0,0.3-0.1,0.6-0.1,0.7c0,0.1-0.1,0.2-0.1,0.3
			c0,0.2,0,0.3,0.1,0.4c0,0.1,0,0.2,0,0.2c-0.1,0.1-0.4,0.2-0.6,0.3c-0.7,0.3-1.8,0.6-1.8,1.9c0,0.8,0.4,1.3,1.1,1.3
			c0.3,0,0.6-0.1,0.9-0.1c0.2,0,0.4-0.1,0.6-0.1c0.6,0,1.2-0.1,1.8,0c0.6,0,1.2,0,1.8,0c0.5,0,0.7-0.1,0.9-0.4
			c0-0.1,0.1-0.2,0.2-0.3c0.1-0.1,0.2-0.3,0.2-0.6c0-0.5-0.3-0.7-0.5-0.8c0,0-0.1-0.1-0.1-0.1c0,0,0-0.1,0-0.1c0-0.1,0-0.2,0-0.3
			c0-0.1-0.1-0.1-0.2-0.2c-0.2-0.1-0.4-0.1-0.6-0.2c-1.1-0.3-1.1-0.3-1.1-1.8l0-1.7c0-0.3,0-0.5,0.1-0.8c0-0.3,0.1-0.6,0.1-0.9
			c0-0.3,0-0.5-0.1-0.6c0.4-0.2,0.9-0.3,1-0.4c0.3,0,0.6-0.1,1-0.1c0.3,0,0.4,0,0.6,0.2c0.1,0,0.2,0.1,0.2,0.1c1.2,0,2.3-0.3,3.4-1
			l0.1-0.1c0.9-0.5,1.4-0.9,1.5-1.2c0.1-0.3,0.3-0.6,0.5-0.9c0.2-0.3,0.4-0.6,0.5-0.9c0.2-0.6,0.3-1.6,0.3-2.1
			C57.1,206.1,57,205.1,56.4,204.8z M43.3,202.8C43.3,202.8,43.3,202.8,43.3,202.8C43.3,202.8,43.3,202.8,43.3,202.8
			C43.3,202.8,43.3,202.8,43.3,202.8z M47.4,208.4c0.2-0.1,0.5-0.3,0.5-0.8c0-0.3-0.1-0.5-0.2-0.7c0-0.1-0.1-0.2-0.1-0.2
			c0,0,0,0,0,0c0.1,0,0.3-0.2,0.3-0.3c0-0.4-0.2-0.7-0.3-1c-0.1-0.2-0.2-0.4-0.2-0.4c0-0.1,0.1-0.2,0.2-0.3c0.1-0.1,0.2-0.2,0.2-0.3
			c0,0,0.4-0.3,2.9-0.3c2.1,0,3.5,1.5,3.5,3.8c0,1.6-0.9,1.6-1.2,1.6c-0.5,0-0.6,0.2-0.8,0.4c-0.1,0.1-0.1,0.1-0.2,0.1
			c-0.3,0.1-2.5,0.2-3.1,0.2c-0.1,0-0.3,0-0.4,0c-0.1-0.1-0.2-0.3-0.4-0.6C47.8,209.2,47.5,208.7,47.4,208.4
			C47.4,208.4,47.4,208.4,47.4,208.4z"/>
	</g>
	<g>
		<path class="st0" d="M81.6,202.2c-0.5-0.5-1.2-0.5-1.8-0.5c-0.2,0-0.4,0-0.6,0c-0.1,0-0.3-0.1-0.5-0.2c-0.3-0.1-0.6-0.3-0.9-0.3
			c-0.2,0-0.5,0.1-0.6,0.1c-0.5,0.2-0.8,0.1-1.2,0.1c-0.3,0-0.5,0-0.8,0c-1.6,0-1.7,0.8-1.8,1.2c0,0.4,0.1,0.7,0.2,1
			c0,0.2,0.1,0.3,0.1,0.5c0,0.2,0.2,0.3,0.3,0.3l0.1,0c0.2,0,0.4,0.1,0.6,0.2c0.2,0.1,0.5,0.2,0.8,0.3c0,0,0,0,0.1,0
			c0.2,0.3,0.5,0.7,0.8,1c-0.1,0.2-0.2,0.5-0.2,0.9c0,0.5,0.1,0.9,0.1,1.4c0.1,0.4,0.1,0.9,0.1,1.3c0,0.3,0,0.7-0.1,1
			c0,0.3-0.1,0.7-0.1,1.1c0,0.3,0,0.6,0.1,0.9c0,0.2,0.1,0.5,0.1,0.8c0,0.1,0,0.3-0.1,0.4c0,0.2-0.1,0.4-0.1,0.6
			c0,0.2,0,0.4,0.1,0.6c0,0.2,0.1,0.3,0.1,0.5c0,0.2,0,0.4-0.1,0.6c0,0.2-0.1,0.5-0.1,0.7c0,0.2,0,0.4,0,0.7c0,0.2,0,0.4,0,0.5
			l0,0.2c-0.2,0.2-0.4,0.4-0.5,0.6c-0.2,0.3-0.4,0.6-0.8,0.8c-0.1,0.1-0.2,0.1-0.4,0.2c-0.4,0.1-0.8,0.3-1,0.9c0,0,0,0,0,0
			c-0.1,0-0.2,0.1-0.3,0.2c-0.1-0.2-0.3-0.3-0.5-0.4c-0.2-0.1-0.3-0.2-0.4-0.4c-0.2-0.3-0.6-0.5-0.9-0.6c-0.2-0.1-0.4-0.2-0.6-0.4
			c-0.1-0.1-0.2-0.3-0.2-0.5c-0.1-0.3-0.2-0.5-0.4-0.6c-0.2-0.1-0.2-0.2-0.2-0.8c0-0.2,0-0.4,0-0.6c0-0.2,0-0.5,0-0.7
			c0-0.3,0-0.5-0.1-0.8c0-0.2-0.1-0.4-0.1-0.6c0-0.6-0.2-0.8-0.4-0.9c0.1-0.2,0.2-0.4,0.2-0.7l0-0.4c0-0.1,0-0.2,0-0.3
			c0-0.2,0.1-0.3,0.1-0.5c0-0.2,0-0.3-0.1-0.5c-0.1-0.3-0.1-0.6-0.1-0.9c0-0.4,0.1-0.8,0.1-1.1c0.1-0.4,0.1-0.8,0.1-1.1
			c0-0.2,0-0.4,0-0.6c0-0.2,0-0.4,0-0.6c0-0.9,0.7-1.5,1.3-2.1c0.6-0.5,1.1-1,1.1-1.7c0-1-2.1-1.4-2.5-1.4c-0.3,0-0.6,0.1-0.9,0.1
			c-0.4,0.1-0.7,0.1-1.1,0c-0.1,0-0.3-0.1-0.5-0.1c-0.4,0-2.3,0.3-2.3,1.3c0,0.3,0.2,0.6,0.4,0.7c0.4,0.3,0.8,0.4,1.1,0.5
			c0.5,0.1,0.7,0.2,0.8,1.1l0,0.1c0,0.5,0,0.9,0.2,1.3c0,0,0,0.1,0,0.1c0,0.1,0,0.1,0,0.2c0,0.2-0.1,0.3-0.1,0.5
			c-0.1,0.2-0.1,0.4-0.1,0.6l0,0.6c0,0.6,0,1.1,0.1,1.6c0,0.5,0.1,1.1,0.1,1.6c0,0.8-0.1,1.6-0.2,2.4c0,0.1,0,0.2,0,0.2
			c0,0.1-0.1,0.3-0.1,0.4c0,0.4,0.1,0.7,0.2,0.9c0.2,0.6,0.2,1.2,0.2,1.8c0.1,0.7,0.1,1.5,0.3,2.2c0.2,0.7,0.8,1.9,1.7,2.1
			c0.4,0.1,0.8,0.3,0.9,0.4c0,0,0,0.1,0.1,0.1c0.2,0.2,0.3,0.2,0.6,0.2c0.1,0,0.2,0,0.3,0c0.3,0,0.7,0,1.1,0.2
			c0.3,0.1,0.6,0.2,1,0.2c0.7,0,1.2-0.2,1.6-0.5c0.3-0.2,0.6-0.3,0.9-0.4c0.5-0.1,0.7-0.4,0.8-0.6c0-0.1,0.1-0.2,0.1-0.2
			c0.1-0.1,0.2-0.2,0.3-0.3c0.5-0.5,0.8-0.8,0.9-1.1c0-0.2-0.1-0.4-0.2-0.5c0,0,0,0,0,0c1.1-0.3,1.1-2.6,1.1-2.7
			c0-0.5-0.1-0.8-0.3-1c-0.1-0.1-0.1-0.2-0.1-0.3c0.3-0.5,0.4-1.3,0.4-1.8c0-0.4-0.1-0.9-0.1-1.3c-0.1-0.4-0.1-0.8-0.1-1.1
			c0-0.1,0-0.2,0.1-0.3c0-0.1,0.1-0.3,0.1-0.4c0-0.2-0.1-0.4-0.1-0.6c0-0.2-0.1-0.3-0.1-0.5l0-0.8c0-0.1,0-0.1,0.1-0.2
			c0-0.1,0.1-0.3,0.1-0.4c0-0.3-0.2-0.6-0.4-0.8c-0.1-0.1-0.1-0.2-0.2-0.2c0.4-0.2,0.5-0.7,0.6-1.1c0-0.2,0.1-0.3,0.1-0.5
			c0.1-0.2,0.1-0.2,0.3-0.2c0.1,0,0.3,0,0.5-0.1c0.3-0.1,0.5-0.2,0.6-0.3c0.1-0.1,0.1-0.1,0.2-0.2c0.1,0,0.1-0.1,0.2-0.1
			c0.4-0.2,1.1-0.4,1.1-1c0-0.3-0.2-0.5-0.3-0.7L81.6,202.2z M74.3,220.7C74.3,220.7,74.3,220.7,74.3,220.7c0.1,0,0,0.1,0,0.1
			C74.3,220.8,74.3,220.7,74.3,220.7z"/>
	</g>
	<g>
		<path class="st0" d="M106,202.3c-0.5-0.5-1.2-0.5-1.8-0.5c-0.2,0-0.4,0-0.6,0c-0.1,0-0.3-0.1-0.5-0.2c-0.3-0.1-0.6-0.3-0.9-0.3
			c-0.2,0-0.5,0.1-0.6,0.1c-0.5,0.2-0.8,0.1-1.2,0.1c-0.3,0-0.5,0-0.8,0c-1.6,0-1.7,0.8-1.8,1.2c0,0.4,0.1,0.7,0.2,1
			c0,0.2,0.1,0.3,0.1,0.5c0,0.2,0.2,0.3,0.3,0.3l0.1,0c0.2,0,0.4,0.1,0.6,0.2c0.2,0.1,0.6,0.3,0.9,0.2c0.2,0.3,0.5,0.7,0.8,1
			c-0.1,0.2-0.2,0.5-0.2,0.9c0,0.5,0.1,0.9,0.1,1.4c0.1,0.4,0.1,0.9,0.1,1.3c0,0.3,0,0.7-0.1,1c0,0.3-0.1,0.7-0.1,1.1
			c0,0.3,0,0.6,0.1,0.9c0,0.2,0.1,0.5,0.1,0.8c0,0.1,0,0.3-0.1,0.4c0,0.2-0.1,0.4-0.1,0.6c0,0.2,0,0.4,0.1,0.6
			c0,0.2,0.1,0.3,0.1,0.5c0,0.2,0,0.4-0.1,0.6c0,0.2-0.1,0.5-0.1,0.7c0,0.2,0,0.4,0,0.7c0,0.2,0,0.4,0,0.5l0,0.2
			c-0.2,0.2-0.4,0.4-0.5,0.6c-0.2,0.3-0.4,0.6-0.8,0.8c-0.1,0.1-0.2,0.1-0.4,0.2c-0.4,0.1-0.8,0.3-1,0.9c0,0,0,0,0,0
			c-0.1,0-0.2,0.1-0.3,0.2c-0.1-0.2-0.3-0.3-0.5-0.4c-0.2-0.1-0.3-0.2-0.4-0.4c-0.2-0.3-0.6-0.5-0.9-0.6c-0.2-0.1-0.4-0.2-0.6-0.4
			c-0.1-0.1-0.2-0.3-0.2-0.5c-0.1-0.3-0.2-0.5-0.4-0.6c-0.2-0.1-0.2-0.2-0.2-0.8c0-0.2,0-0.4,0-0.6c0-0.2,0-0.5,0-0.7
			c0-0.3,0-0.5-0.1-0.8c0-0.2-0.1-0.4-0.1-0.6c0-0.6-0.2-0.8-0.4-0.9c0.1-0.2,0.2-0.4,0.2-0.7l0-0.4c0-0.1,0-0.2,0-0.3
			c0-0.2,0.1-0.3,0.1-0.5c0-0.2,0-0.3-0.1-0.5c-0.1-0.3-0.1-0.6-0.1-0.9c0-0.4,0.1-0.8,0.1-1.1c0.1-0.4,0.1-0.8,0.1-1.1
			c0-0.2,0-0.4,0-0.6c0-0.2,0-0.4,0-0.6c0-0.9,0.7-1.5,1.3-2.1c0.6-0.5,1.1-1,1.1-1.7c0-1-2.1-1.4-2.5-1.4c-0.3,0-0.6,0.1-0.9,0.1
			c-0.4,0.1-0.7,0.1-1.1,0c-0.1,0-0.3-0.1-0.5-0.1c-0.4,0-2.3,0.3-2.3,1.3c0,0.3,0.2,0.6,0.4,0.7c0.4,0.3,0.8,0.4,1.1,0.5
			c0.5,0.1,0.7,0.2,0.8,1.1l0,0.1c0,0.5,0,0.9,0.2,1.3c0,0,0,0.1,0,0.1c0,0.1,0,0.1,0,0.2c0,0.2-0.1,0.3-0.1,0.5
			c-0.1,0.2-0.1,0.4-0.1,0.6l0,0.6c0,0.6,0,1.1,0.1,1.6c0,0.5,0.1,1.1,0.1,1.6c0,0.8-0.1,1.6-0.2,2.4c0,0.1,0,0.2,0,0.2
			c0,0.1-0.1,0.3-0.1,0.4c0,0.4,0.1,0.7,0.2,0.9c0.2,0.6,0.2,1.2,0.2,1.8c0.1,0.7,0.1,1.5,0.3,2.2c0.2,0.7,0.8,1.9,1.7,2.1
			c0.4,0.1,0.8,0.3,0.9,0.4c0,0,0,0.1,0.1,0.1c0.2,0.2,0.3,0.2,0.6,0.2c0.1,0,0.2,0,0.3,0c0.3,0,0.7,0,1.1,0.2
			c0.3,0.1,0.6,0.2,1,0.2c0.7,0,1.2-0.2,1.6-0.5c0.3-0.2,0.6-0.3,0.9-0.4c0.5-0.1,0.7-0.4,0.8-0.6c0-0.1,0.1-0.2,0.1-0.2
			c0.1-0.1,0.2-0.2,0.3-0.3c0.5-0.5,0.8-0.8,0.9-1.1c0-0.2-0.1-0.4-0.2-0.5c0,0,0,0,0,0c1.1-0.3,1.1-2.6,1.1-2.7
			c0-0.5-0.1-0.8-0.3-1c-0.1-0.1-0.1-0.2-0.1-0.3c0.3-0.5,0.4-1.3,0.4-1.8c0-0.4-0.1-0.9-0.1-1.3c-0.1-0.4-0.1-0.8-0.1-1.1
			c0-0.1,0-0.2,0.1-0.3c0-0.1,0.1-0.3,0.1-0.4c0-0.2-0.1-0.4-0.1-0.6c0-0.2-0.1-0.3-0.1-0.5l0-0.8c0-0.1,0-0.1,0.1-0.2
			c0-0.1,0.1-0.3,0.1-0.4c0-0.3-0.2-0.6-0.4-0.8c-0.1-0.1-0.1-0.2-0.2-0.2c0.4-0.2,0.5-0.7,0.6-1.1c0-0.2,0.1-0.3,0.1-0.5
			c0.1-0.2,0.1-0.2,0.3-0.2c0.1,0,0.3,0,0.5-0.1c0.3-0.1,0.5-0.2,0.6-0.3c0.1-0.1,0.1-0.1,0.2-0.2c0.1,0,0.1-0.1,0.2-0.1
			c0.4-0.2,1.1-0.4,1.1-1c0-0.3-0.2-0.5-0.3-0.7L106,202.3z M98.7,220.9C98.8,220.9,98.8,220.9,98.7,220.9c0.1,0,0,0.1,0,0.1
			C98.7,220.9,98.7,220.9,98.7,220.9z"/>
	</g>
	<g>
		<path class="st0" d="M129.4,204.8c0-1,0-2.5-1.2-2.8c0,0,0,0,0,0c-1.5-0.4-2.6-0.4-3.7-0.4c-0.2,0-0.4,0-0.6,0l-1.6,0.2
			c-0.1,0-0.2,0-0.3-0.1c-0.3-0.1-0.6-0.1-0.8,0c-0.2,0-0.3,0-0.4,0c-0.3-0.1-0.6-0.1-0.8,0c-0.1,0-0.1,0-0.2,0
			c-0.1,0-0.3,0-0.4-0.1c-0.4-0.1-1-0.1-1.4,0c-0.5,0.1-0.9,0.1-1.4,0c-0.2,0-0.5-0.1-0.7-0.1c-1.5,0-2,2-2,3.4
			c0,0.3,0.1,0.6,0.1,0.9c0.1,0.3,0.1,0.5,0.1,0.7c0,0.1,0,0.2-0.1,0.3c0,0.1-0.1,0.3-0.1,0.5c0,0.3,0.1,0.5,0.2,0.8
			c0.1,0.2,0.1,0.3,0.1,0.5c0,0.1-0.1,0.2-0.1,0.4c0,0.5,0.4,0.8,0.8,0.8c0.6,0,0.7-0.5,0.8-0.7c0-0.1,0.1-0.2,0.2-0.4
			c0.2-0.4,0.3-0.8,0.3-1.1c0-0.2-0.1-0.4-0.1-0.5c0-0.1-0.1-0.2-0.1-0.3c0,0,0-0.1,0.1-0.2c0.1-0.1,0.1-0.3,0.1-0.6
			c0-0.2,0-0.3,0-0.5c0-0.1,0-0.3,0-0.4c0-1.1,1.3-1.4,2-1.4c0.7,0,1.3,0.1,1.9,0.3c0.3,0.1,0.4,0.2,0.4,0.6c0,0.7-0.1,1.4-0.2,2.1
			c-0.1,0.7-0.2,1.5-0.2,2.2c0,0.6,0,1.2,0.2,1.9c0.1,0.3,0.1,0.6,0.1,0.9c0,0.4,0,0.8-0.1,1.2c0,0.1,0,0.1-0.1,0.2
			c0,0.1-0.1,0.3-0.1,0.5c0,0.1,0.1,0.3,0.1,0.5l0.1,0.2c0,0,0.1,0.1,0.1,0.1l0,0c0,0.1-0.1,0.1-0.1,0.2c-0.1,0.1-0.2,0.4-0.2,0.6
			c0,0.8,0.1,1.7,0.2,2.7c0,0.3-0.3,1.1-0.5,1.2c-0.3,0.1-0.6,0.1-0.9,0.2c-0.5,0-1.1,0.1-1.5,0.5c-0.1,0.1-0.1,0.2-0.1,0.3
			c-0.4,0.1-0.7,0.4-0.7,1.2c0,1.2,1.7,1.3,2.3,1.3c1,0,1.9-0.2,2.8-0.3c0.9-0.2,1.8-0.3,2.7-0.3c0.4,0,0.7,0,1,0.1
			c0.2,0,0.3-0.1,0.4-0.2c0-0.1,0.1-0.2,0.3-0.2c0.1,0,0.2-0.1,0.3-0.1c0.1-0.1,0.1-0.2,0-0.3c0,0,0-0.1,0-0.1c0-0.1,0-0.2,0.1-0.3
			c0-0.2,0.1-0.3,0.1-0.5c0-0.9-1.1-1.1-1.7-1.1l-0.4,0c-1,0-1.1-0.6-1.2-1.2c0-0.1,0-0.3-0.1-0.4c-0.1-0.2-0.2-0.3-0.2-0.4
			c0-0.1-0.1-0.1-0.1-0.2c0-0.1,0-0.2,0.1-0.3c0-0.1,0.1-0.3,0.1-0.4c0-0.2,0-0.4-0.1-0.5c0,0,0-0.1,0-0.1c0.3-0.1,0.4-0.3,0.4-0.5
			c0-0.2,0-0.4-0.1-0.6c0-0.1-0.1-0.2-0.1-0.3c0-0.1,0-0.2,0-0.3c0-0.1,0.1-0.2,0.1-0.4c0-0.3-0.1-0.6-0.3-0.9
			c-0.1-0.2-0.2-0.3-0.2-0.4c0,0,0-0.1,0-0.1c0.2-0.4,0.3-0.9,0.3-1.3c0-0.7-0.1-1.4-0.2-2.1c-0.1-0.7-0.2-1.4-0.2-2.1
			c0-0.3,0-0.6,0-0.9c0-0.3,0-0.7,0.1-1c0-0.1,0-0.4,0-0.6c0.2-0.1,0.3-0.1,0.5-0.2c0.6-0.3,1.3-0.5,1.9-0.5c0.5,0,1.4,0.3,1.4,0.8
			c0,0.1-0.1,0.2-0.2,0.4c-0.2,0.2-0.3,0.5-0.3,0.9c0,0.5,0.2,0.9,0.4,1.3c0.1,0.2,0.2,0.7,0.2,1c0.1,0.5,0.1,0.7,0.4,0.7
			c0.1,0,0.2,0,0.2-0.1c0,0,0,0.2,0.1,0.3c0,0.3,0.1,0.8,0.6,0.8c0.5,0,1.2-0.7,1.2-1.2c0-0.3,0.1-0.7,0.1-1.1
			c0-0.7-0.1-1.5-0.2-2.2C129.4,205.3,129.4,205,129.4,204.8z"/>
	</g>
	<g>
		<path class="st0" d="M150.6,220.8c-0.2,0-0.4-0.1-0.5-0.1c-0.3-0.2-0.7-0.7-1-1c0-0.1-0.1-0.1-0.1-0.2c0.1-0.3,0.1-0.6,0.1-0.8
			c0-0.8-0.2-1.6-0.3-2.4c-0.2-0.7-0.3-1.3-0.3-1.9c0-0.9-0.2-1.7-0.4-2.4c-0.1-0.4-0.1-0.8-0.2-1.2c0-0.3,0-0.7-0.1-1
			c-0.3-0.9-0.8-2.8-0.8-3.1c0-0.2,0-0.4,0.1-0.6c0-0.2,0.1-0.4,0.1-0.7c0-0.3-0.1-0.4-0.2-0.5c-0.1-0.2-0.2-0.4-0.2-0.7
			c0-0.1,0-0.2-0.1-0.4c-0.1-0.4-0.3-0.7-0.6-0.9c-0.2-0.2-0.4-0.4-0.4-0.7c0-0.1-0.2-0.2-0.3-0.3c-0.7-0.1-1.4-0.1-2.4,0.2
			c-0.9,0.4-0.9,0.7-1,1.4l0,0.3c0,0.2-0.1,0.5-0.2,0.7c-0.1,0.3-0.2,0.6-0.2,0.9c-0.1,0.6-0.2,0.7-0.5,1.3c-0.2,0.5-0.3,1-0.3,1.4
			c0,0.3,0,0.6-0.1,1c0,0.1-0.1,0.3-0.2,0.4c-0.2,0.2-0.3,0.5-0.3,0.8c0,0.2,0,0.4,0.1,0.6c0,0.2,0.1,0.4,0.1,0.6
			c0,0.4-0.1,0.5-0.2,0.8c-0.1,0.2-0.2,0.4-0.2,0.6c0,0.2,0.1,0.3,0.1,0.4c0,0.1,0,0.1,0,0.2c0,0.1,0,0.3,0.1,0.4c0,0.1,0,0.2,0,0.2
			c0,0-0.1,0.1-0.1,0.1c-0.1,0.1-0.3,0.3-0.3,0.6c0,0.2,0.1,0.4,0.1,0.5c0,0.1,0.1,0.2,0.1,0.2c0,0,0,0-0.1,0.1
			c-0.1,0.1-0.4,0.3-0.4,0.7c0,0.1,0,0.3,0,0.5c-0.1,0.1-0.2,0.2-0.3,0.3c-0.1,0.1-0.1,0.3-0.1,0.6c0,0.1,0,0.3,0,0.4l0,0.2
			c-0.1,0.5-0.3,1.8-0.6,2.1c-0.2,0.2-0.5,0.3-0.9,0.4c-0.7,0.2-1.6,0.5-1.6,1.5c0,1.1,1.8,1.1,2.5,1.1c0.7,0,1.5-0.1,2.2-0.1
			c0.7-0.1,1.4-0.1,2.1-0.1l0.2,0c0.2,0,0.3-0.1,0.3-0.3l0-0.1c0-0.5-0.4-1.5-0.9-1.8c-0.1-0.1-0.2-0.1-0.3-0.2
			c-0.4-0.2-0.5-0.3-0.5-0.6c0-0.1,0-0.1,0.1-0.2c0.1-0.1,0.3-0.4,0.3-0.7l0-0.1c0-0.1,0-0.2,0-0.2c0.1-0.2,0.1-0.3,0.1-0.3
			c0,0,0-0.1,0-0.1c0,0,0.1,0,0.2-0.1l0.2-0.1c0.4-0.2,0.8-0.3,1.2-0.5c0.1,0.1,0.4,0.2,0.7,0.2c0.3,0,0.5,0,0.8-0.1
			c0.2,0,0.5-0.1,0.7-0.1c0,0,0,0,0,0c0.6,0.5,1.1,1.1,1.1,1.7c0,0.7-0.5,1.1-1,1.6c-0.4,0.4-0.7,0.7-0.7,1.1c0,1.2,2.6,1.6,3.1,1.6
			c0.2,0,0.4-0.1,0.6-0.1c0.2-0.1,0.4-0.1,0.6-0.1c0.6,0.1,0.8-0.2,0.9-0.4c0,0,0,0,0.1,0c0.1,0,0.2,0,0.3,0c0.5,0,1.2-0.6,1.2-1.2
			C152,221,151.2,220.9,150.6,220.8z M143.2,211.2c0-0.1,0-0.3,0-0.4c0-0.3,0-0.6,0.2-0.9c0-0.1,0.1-0.2,0.1-0.2
			c0.1-0.2,0.2-0.5,0.2-0.7c0.1,0,0.3-0.1,0.5-0.3c0.5,0.1,0.6,0.6,0.6,1.6c0,0.1,0,0.2,0,0.3c0,0.3,0.1,0.5,0.1,0.8
			c0.1,0.3,0.1,0.5,0.1,0.7c0,0.6,0.3,1.2,0.4,1.6c0.1,0.1,0.2,0.3,0.2,0.4c0,0.4-1.4,0.8-2.2,0.8c-0.4,0-0.6-0.1-0.6-1.3
			c0-0.2,0.1-0.3,0.1-0.5c0.1-0.3,0.2-0.7,0.2-1.2C143.2,211.5,143.2,211.3,143.2,211.2z"/>
	</g>
	<g>
		<path class="st0" d="M174.8,218.5c0,0-0.1,0-0.1,0c-0.4,0.2-0.6,0.6-0.8,1c-0.1,0.2-0.2,0.4-0.2,0.4c-0.2-0.1-0.7-1.3-0.8-2.1
			c0-0.3-0.1-0.7-0.1-1c0-0.7-0.1-1.5-0.4-2.3c-0.1-0.1-0.1-0.2-0.2-0.3c-0.2-0.4-0.3-0.7-0.3-1c0-0.2,0.2-0.5,0.4-0.8
			c0.2-0.3,0.4-0.5,0.6-0.9c0.1-0.2,0.1-0.2,0.4-0.3c0.1-0.1,0.2-0.1,0.4-0.2c0.6-0.4,0.7-1.5,0.7-2.5l0-0.2c0-0.3,0-0.6-0.1-0.9
			c0-0.1-0.1-0.1-0.1-0.2c0.1-0.1,0.2-0.3,0.2-0.5c0-0.4-0.3-0.7-0.5-0.9c0,0,0,0,0,0c0.1-0.1,0.1-0.2,0.1-0.3
			c0-0.2-0.2-0.5-0.4-0.7c-0.2-0.2-0.5-0.5-0.5-0.8c-0.2-1.3-1.5-1.8-2.6-1.9c-0.3,0-0.6-0.1-0.9-0.2c-0.4-0.1-0.8-0.2-1.2-0.2
			c-0.1,0-0.3,0-0.5,0.1c-0.7,0.3-1.6,0.3-2.5,0.1c-0.6-0.1-1.3-0.2-2,0c-0.2,0-0.4,0.1-0.6,0.1c-0.1,0-0.3,0-0.5,0
			c-0.8,0-2.1,0.1-2.1,1.4c0,0.7,0.3,1.2,0.8,1.2c0.1,0,0.1,0,0.3,0c0.8,0,1,1.3,1.1,2.6c0,0.2,0,0.3,0,0.4c0,0.4,0,0.7,0,1.1
			c0,0.7-0.1,1.3-0.1,2s-0.1,1.4-0.1,2.1c0,0.1,0,0.2,0,0.3c0,0.1,0,0.2,0,0.3c0,0.4,0,0.8-0.1,1.2c0,0.4-0.1,0.8-0.1,1.2
			c0,0.4,0.1,0.7,0.1,1c0.1,0.3,0.1,0.6,0.1,1c0,0.2,0,0.4,0,0.5c-0.1,0.3-0.1,0.6-0.1,1c0,0.6-0.1,0.9-0.4,1.2c0,0-0.1,0-0.1,0
			c-0.1,0-0.1,0-0.2,0c-0.2,0-0.3,0.1-0.4,0.2c0,0-0.1,0-0.1,0.1c-0.2,0.2-0.2,0.2-0.5,0.2l-0.2,0c-0.8,0.2-1.3,0.6-1.3,1.2
			c0,0.8,0.8,1.2,1.6,1.2c0.4,0,0.8-0.1,1.2-0.2c0.6-0.1,1.2-0.2,1.8-0.1c0.6,0.1,1.2,0.2,1.8,0l0.2,0c0.6-0.1,1.2-0.2,1.6-1
			c0.2-0.2,0.2-0.4,0.2-0.7c0-0.9-0.8-1.2-1.4-1.4c-0.8-0.3-1.6-0.6-1.6-1.7c0-0.2,0-0.3,0.1-0.5c0-0.1,0-0.2,0-0.2
			c0.2-0.9,0.2-1.7,0.2-2.5l0-0.4c0-0.5,0.5-0.9,1-0.9c0.1,0,0.2,0,0.3,0.1c0.3,0.1,0.8,0.1,1.2,0c0.4-0.1,0.7,0,1,0
			c0.3,0,0.6,0,0.9,0c0.1,0.2,0.2,0.3,0.3,0.4c0.5,0.6,0.7,1,0.7,2l0,0.6c0,0.3,0.1,0.5,0.1,0.6c0,0.1,0,0.1,0,0.2
			c-0.1,0.1-0.2,0.3-0.2,0.6c0,0.1,0,0.3,0.1,0.4c0.1,0.3,0.1,0.7,0.2,1.1c0.2,1.2,0.4,2.6,1.6,3.1c0.1,0,0.2,0.1,0.4,0.1
			c0.5,0.2,1.1,0.4,1.7,0.4c0,0,1.8-0.2,1.8-0.8c0,0,0,0,0,0c0.4,0,0.4-0.5,0.4-0.7c0-0.1,0-0.3,0-0.3c0.4-0.2,0.4-0.7,0.4-0.9
			C176.5,219.6,176.3,218.6,174.8,218.5z M164.7,206.9c0-0.3-0.1-0.6-0.1-0.8c0-0.7,0.4-0.8,1.2-1l0.3-0.1c0.4-0.1,0.9-0.1,1.4,0
			c0.3,0.1,0.7,0.1,1,0c0.1,0,0.2-0.1,0.2-0.1c0.6,0,1,0.2,1.6,0.5c0.1,0,0.1,0.1,0.1,0.1c0.1,0.3,0.3,0.4,0.7,0.4
			c0.3,0.4,0.7,1.2,0.7,1.6c0,0.5-1.3,2.5-1.7,2.6c-0.7,0-1.5,0.2-2.4,0.7c-0.1,0-0.2,0.1-0.3,0.1c-0.2,0-0.3-0.1-0.5-0.2
			c-0.2-0.1-0.4-0.3-0.7-0.3c-0.3,0-0.5,0.1-0.7,0.2c-0.1,0.1-0.3,0.1-0.4,0.1c-0.7,0-0.7-0.9-0.7-1.1c0-0.2,0.1-0.4,0.2-0.7
			c0.1-0.3,0.2-0.6,0.2-0.9C164.8,207.5,164.8,207.2,164.7,206.9z"/>
	</g>
	<g>
		<path class="st0" d="M200.7,220.8c-0.3-0.2-0.6-0.3-1-0.4c-0.3-0.1-0.7-0.2-0.8-0.3c0,0,0,0,0,0c-0.1-0.2-0.3-0.9-0.3-1.1
			c0-0.2,0-0.3,0.1-0.5c0-0.2,0.1-0.5,0.1-0.7c0-0.2-0.1-0.4-0.1-0.6c0-0.1-0.1-0.2-0.1-0.4c0.1-0.2,0.2-0.4,0.2-0.8
			c0-0.3-0.1-0.6-0.1-0.9c-0.1-0.3-0.1-0.5-0.1-0.8c-0.1-0.4-0.1-0.9,0-1.3l0-0.4c0-0.9,0-1.7,0.1-2.5c0-0.8,0.1-1.7,0.1-2.6
			c0-0.3,0-0.5,0-0.8c0-0.2,0-0.5,0-0.7c0-0.2,0-0.5,0.1-0.7c0.1-0.2,0.5-0.4,0.9-0.5c0.6-0.2,1.3-0.4,1.3-1.3
			c0-0.7-0.4-1.5-2.5-1.5c-0.4,0-0.7,0-1.1,0.1c-0.6,0.1-1.1,0.1-1.6,0c-0.3,0-0.6-0.1-0.9-0.1c-1.1,0-1.6,0.4-1.6,1.2
			c0,1.1,0.9,1.3,1.5,1.4c0.8,0.2,1.3,0.3,1.3,1.2c0,0.2,0,0.3,0,0.5c0,0.2,0,0.4,0,0.6c0,0.4,0.1,0.7,0.2,1
			c0.1,0.3,0.2,0.5,0.2,0.7c0,1.5-0.4,1.7-0.3,1.7c-0.1,0-0.3,0.1-0.6,0.3c-0.1,0-0.1,0.1-0.2,0.1c-0.1,0-0.2,0.1-0.4,0.1
			c-0.2,0-0.5-0.1-0.7-0.1c-0.5-0.1-1.2-0.1-1.7-0.1c-0.3,0-0.5,0-0.8,0c-1.4,0-2.1-0.4-2.1-1.3c0-0.2,0-0.5,0.1-0.7
			c0-0.3,0.1-0.5,0.1-0.8c0-0.6-0.1-1.2-0.3-1.8l0-0.1c0-0.1,0-0.2,0-0.3c0-0.9,1.1-1.7,1.8-1.7c0.2,0,0.5-0.2,0.5-0.7
			c0-0.9-0.6-1.5-1.6-1.5c-0.4,0-0.9,0.1-1.3,0.2c-0.6-0.3-1.5-0.4-1.9-0.4c-1.1,0-2.3,0.4-2.3,1.6c0,1.1,0.9,1.3,1.5,1.5
			c0.2,0.1,0.4,0.1,0.5,0.1c0.2,0.2,0.7,1,0.7,1.3c0,0-0.1,0.1-0.1,0.2c-0.1,0.1-0.2,0.3-0.2,0.4c0,0.2,0.1,0.4,0.2,0.5
			c0,0.1,0,0.2,0,0.2c0,0.2,0,0.3,0,0.5c0,0.3,0,0.5,0.1,0.7c0,0.2,0.1,0.4,0.1,0.6c0,0.2-0.1,1.2-0.2,1.3c-0.1,0.1-0.1,0.3-0.1,0.3
			c0,0.3,0,0.5,0.1,0.7c0,0.2,0.1,0.4,0.1,0.6c0,0.1,0,0.3,0,0.4c0,0.2,0,0.4,0,0.6c0,0.4,0,0.8,0.1,1.3c0,0.4,0.1,0.8,0.1,1.2
			c0,0.1,0,0.2,0,0.4c0,0.1,0,0.3,0,0.4c0,0.3,0,0.5,0,0.8c0,0.2,0,0.5,0,0.7c0,1.3-0.6,1.4-1.4,1.6c-0.2,0.1-0.5,0.1-0.6,0.2
			c-0.5,0.2-0.8,1.1-0.8,1.6c0,1,1.2,1.3,2.3,1.3c1,0,2.1,0,3.1-0.2c0,0,0.1,0,0.2,0.1c0.2,0.1,0.3,0.1,0.4,0.1c1.2,0,1.8-0.3,1.8-1
			c0-0.2,0-0.4-0.1-0.6c0-0.1-0.1-0.2-0.1-0.4c0,0,0-0.1,0-0.1c0-0.1,0-0.3-0.1-0.4c-0.3-0.2-0.6-0.3-0.9-0.4
			c-0.6-0.2-1-0.3-1.1-0.9c0-0.2-0.1-0.5-0.2-0.7c-0.1-0.3-0.2-0.5-0.2-0.8c0,0,0-0.1,0-0.1c0-0.1,0.1-0.2,0.1-0.4
			c0-0.2,0-0.3-0.1-0.5c0-0.1-0.1-0.2-0.1-0.4c0-0.1,0-0.1,0,0c0.3-0.5,0.3-0.9,0.3-1.4l0-1.1c0.4-0.4,1.2-0.4,1.8-0.4l0.2,0
			c0.3,0,0.6-0.1,0.9-0.2c0.2-0.1,0.5-0.2,0.5-0.2c0,0,0,0,0.1,0c0.2,0.1,0.4,0.1,0.7,0c0.1,0,0.2-0.1,0.3-0.1c0.4,0,0.8,0,1.3,0.2
			c0.5,0.1,0.9,0.8,0.9,1.5c0,0,0,0.1-0.1,0.2c-0.1,0.1-0.1,0.4-0.1,0.6c0,0.2,0,0.5,0,0.7c0,0.2,0,0.4,0,0.5c0,0.2,0,0.3,0,0.4
			c0,0.2,0,0.4,0,0.5c0,0.2,0,0.5,0,0.8c0,0.2,0,0.5,0,0.7c0,0.2-0.1,0.3-0.2,0.5c-0.1,0.1-0.2,0.2-0.2,0.3
			c-0.2-0.1-0.3-0.1-0.5-0.1c-0.8,0-1.7,0.4-1.7,1.3c0,0.8,0.6,1.5,1.4,1.5c0,0,0.1,0,0.2,0.1c0.1,0.1,0.3,0.2,0.5,0.2
			c0.3,0,0.6-0.1,0.9-0.3c0.3-0.1,0.7-0.3,1.2-0.3l0.1,0c1.2,0,2.7,0,3.2-0.6c0.1-0.1,0.2-0.3,0.2-0.5
			C201.3,221.3,200.9,221,200.7,220.8z"/>
	</g>
	<g>
		<path class="st0" d="M223.2,221.3c-0.2,0-0.4-0.1-0.5-0.1c-0.3-0.2-0.7-0.7-1-1c0-0.1-0.1-0.1-0.1-0.2c0.1-0.3,0.1-0.6,0.1-0.8
			c0-0.8-0.2-1.6-0.3-2.4c-0.2-0.7-0.3-1.3-0.3-1.9c0-0.9-0.2-1.7-0.4-2.4c-0.1-0.4-0.1-0.8-0.2-1.2c0-0.3,0-0.7-0.1-1
			c-0.3-0.9-0.8-2.8-0.8-3.1c0-0.2,0-0.4,0.1-0.6c0-0.2,0.1-0.4,0.1-0.7c0-0.3-0.1-0.4-0.2-0.5c-0.1-0.2-0.2-0.4-0.2-0.7
			c0-0.1,0-0.2-0.1-0.4c-0.1-0.4-0.3-0.7-0.6-0.9c-0.2-0.2-0.4-0.4-0.4-0.7c0-0.1-0.2-0.2-0.3-0.3c-0.7-0.1-1.4-0.1-2.4,0.2
			c-0.9,0.4-0.9,0.7-1,1.4l0,0.3c0,0.2-0.1,0.5-0.2,0.7c-0.1,0.3-0.2,0.6-0.2,0.9c-0.1,0.6-0.2,0.7-0.5,1.3c-0.2,0.5-0.3,1-0.3,1.4
			c0,0.3,0,0.6-0.1,1c0,0.1-0.1,0.3-0.2,0.4c-0.2,0.2-0.3,0.5-0.3,0.8c0,0.2,0,0.4,0.1,0.6c0,0.2,0.1,0.4,0.1,0.6
			c0,0.4-0.1,0.5-0.2,0.8c-0.1,0.2-0.2,0.4-0.2,0.6c0,0.2,0.1,0.3,0.1,0.4c0,0.1,0,0.1,0,0.2c0,0.1,0,0.3,0.1,0.4c0,0.1,0,0.2,0,0.2
			c0,0-0.1,0.1-0.1,0.1c-0.1,0.1-0.3,0.3-0.3,0.6c0,0.2,0.1,0.4,0.1,0.5c0,0.1,0.1,0.2,0.1,0.2c0,0,0,0-0.1,0.1
			c-0.1,0.1-0.4,0.3-0.4,0.7c0,0.1,0,0.3,0,0.5c-0.1,0.1-0.2,0.2-0.3,0.3c-0.1,0.1-0.1,0.3-0.1,0.6c0,0.1,0,0.3,0,0.4l0,0.2
			c-0.1,0.5-0.3,1.8-0.6,2.1c-0.2,0.2-0.5,0.3-0.9,0.4c-0.7,0.2-1.6,0.5-1.6,1.5c0,1.1,1.8,1.1,2.5,1.1c0.7,0,1.5-0.1,2.2-0.1
			c0.7-0.1,1.4-0.1,2.1-0.1l0.2,0c0.2,0,0.3-0.1,0.3-0.3l0-0.1c0-0.5-0.4-1.5-0.9-1.8c-0.1-0.1-0.2-0.1-0.3-0.2
			c-0.4-0.2-0.5-0.3-0.5-0.6c0-0.1,0-0.1,0.1-0.2c0.1-0.1,0.3-0.4,0.3-0.7l0-0.1c0-0.1,0-0.2,0-0.2c0.1-0.2,0.1-0.3,0.1-0.3
			c0,0,0-0.1,0-0.1c0,0,0.1,0,0.2-0.1l0.2-0.1c0.4-0.2,0.8-0.3,1.2-0.5c0.1,0.1,0.4,0.2,0.7,0.2c0.3,0,0.5,0,0.8-0.1
			c0.2,0,0.5-0.1,0.7-0.1c0,0,0,0,0,0c0.6,0.5,1.1,1.1,1.1,1.7c0,0.7-0.5,1.1-1,1.6c-0.4,0.4-0.7,0.7-0.7,1.1c0,1.2,2.6,1.6,3.1,1.6
			c0.2,0,0.4-0.1,0.6-0.1c0.2-0.1,0.4-0.1,0.6-0.1c0.6,0.1,0.8-0.2,0.9-0.4c0,0,0,0,0.1,0c0.1,0,0.2,0,0.3,0c0.5,0,1.2-0.6,1.2-1.2
			C224.6,221.5,223.8,221.4,223.2,221.3z M215.9,211.7c0-0.1,0-0.3,0-0.4c0-0.3,0-0.6,0.2-0.9c0-0.1,0.1-0.2,0.1-0.2
			c0.1-0.2,0.2-0.5,0.2-0.7c0.1,0,0.3-0.1,0.5-0.3c0.5,0.1,0.6,0.6,0.6,1.6c0,0.1,0,0.2,0,0.3c0,0.3,0.1,0.5,0.1,0.8
			c0.1,0.3,0.1,0.5,0.1,0.7c0,0.6,0.3,1.2,0.4,1.6c0.1,0.1,0.2,0.3,0.2,0.4c0,0.4-1.4,0.8-2.2,0.8c-0.4,0-0.6-0.1-0.6-1.3
			c0-0.2,0.1-0.3,0.1-0.5c0.1-0.3,0.2-0.7,0.2-1.2C215.9,212,215.9,211.8,215.9,211.7z"/>
	</g>
	<g>
		<path class="st0" d="M115.3,125.2c-0.1,0-0.2,0-0.3,0c-1.4-0.8-2.6,0.9-3.8,0.2c-1-0.6-0.9-3-0.9-4.1c1-0.7,0.4-4.6,0.5-5.7
			c0.1-0.8,0.5-1.8,0-2.6c0.7-1.8-0.3-3.7-0.2-5.5c0.5-1.1-3.6-0.1-3.9-0.1c-0.5-0.3-2.7-0.2-3.2-0.1c-1,0.2-1.4,0.6-1.5,1.5
			c0,2.1,3.5,1.5,5,1.3c0.2,0.1,0.6,0.1,0.7,0.1c0.5,4,0,8-0.1,12c0,1,0.4,2.6-0.7,3.2c-1.2,0.6-2.8-0.7-4.1-0.3
			c-1.4,0.4-2,1.9-0.8,2.8c1.2,0.9,3,0.2,4.3,0.1c2.1-0.1,6.5,1.4,8-0.2c0,0.5,0.2,0.9,0.7,0.8C117.6,129.1,117.7,125.4,115.3,125.2
			z"/>
	</g>
	<g>
		<path class="st0" d="M132,114.3c0-0.8-0.4-1.1-1.1-1c0.5-0.3,1.2-1.5,0.2-1.5c-0.6-0.1-0.7-0.9-1.5-0.7c0.2-0.3,0.3-0.6,0.4-0.9
			c0.4-0.7-1.5-1.8-1.9-2c-0.4-0.9-0.3-0.5-1.3-0.8c-1.1-0.3-3.3-1-4.3,0c-0.7-0.1-2.5,0.7-2.5,1.6c-1.1,0.4-1.6,1.8-1.9,2.9
			c-0.2,0.7-0.6,4.3,0.5,4.4c0.3,1.6,2.2,3.2,3.7,3.7c2.2,0.7,4.5,0,6.5-0.9c0.6,0.9-0.6,2.1-0.5,3c-0.7,0.4-0.8,1.2-1,1.9
			c-0.8-0.5-2.6,0.7-3.3,1.1c-0.2-0.7-1-0.9-1.8-1c0.4-0.5,0.3-1.5,0-2c-0.7-1.3-2.6-0.9-3.6-0.3c-0.9,0.8-0.9,2.2-0.3,3.1
			c0,0.4,0.1,0.7,0.5,0.8c0.9,1.4,1.7,2.5,3.5,2.8c1.3,0.2,2.1-0.3,3.3-0.6c0,0,1.3-0.7,1.3-0.7c0.5-0.5,0.7-0.1,0.2-0.9
			c0.2-0.2,0.6,0,0.9-0.1c0.6-0.2,0.7-1.1,1.3-1.4c0.8-0.2,0.8-1,0-1.2c0.3-0.2,0.9-0.5,0.7-1c0.8,0.2,1.6-2.6,1.8-3.2
			C132.4,117.6,132,116,132,114.3z M129.6,122.2C129.6,122.2,129.6,122.2,129.6,122.2C129.7,122.2,129.6,122.2,129.6,122.2
			C129.6,122.2,129.6,122.2,129.6,122.2z M127.3,116.8c-1.4,0-2.1,1.2-3.6,0.5c-0.3-0.1-2.2-2.1-2.6-1.3c-0.7-1.3-0.4-1.9-0.3-3.1
			c0-0.4,0.1-0.8,0.2-1.1c0.2-0.4,0.4-0.6,0.4-1.1c0-0.1,1.4-0.8,1.6-1c1.8-0.4,3.3-0.4,4.8,1.1c0.1,0.2,0.5,0.7,1.1,0.8
			C128.2,112.4,129.3,116.7,127.3,116.8z"/>
	</g>
	<g>
		<path class="st0" d="M148.6,108.1c-0.4-0.1-0.6-0.7-1.1-0.8c-1-0.2-2.1,0.7-3,0.8c-1.7-1.1-3.7-2-5.6-1.2
			c-0.4,0.2-0.9,0.7-1.4,0.8c-0.8,0.1-1.2-0.5-2-0.5c-1.2,0-1.1,0.5-1.2,1.6c-0.1,1-2.5,7.4,0.8,5.5c1.2-0.7,1.1-2.6,2-3.5
			c1.2-1.2,2.5,0.2,3.8-0.1c1.4,1.3,2.8,0.1,4.2,0.8c-0.7,1.4-1.5,2.7-2.2,4.1c-0.3,0.5-0.5,1.1-0.8,1.7c-0.2,0.3-0.7,1.8-1,2
			c-0.6,0.2-1.4,2.7-1.3,3.4c-1.1,0.7-1.5,4.7-1,5.9c0.7,1.7,2.3,1.4,2.2-0.5c0.5-0.3,0.9-1.3,0.7-1.9c1.3-1.2,1.1-3.4,1.1-5
			c0.2-0.7,1-1.4,1-2.1c0.4-2.9,3.3-4.9,4-7.7C148.8,111.1,149.3,108.3,148.6,108.1z M139.2,124.4
			C139.2,124.4,139.2,124.4,139.2,124.4L139.2,124.4L139.2,124.4z"/>
	</g>
	<g>
		<path class="st0" d="M164.6,119.9c0-0.5-0.4-0.5-0.4-0.8c0.2-0.5,0.8-1.2,0-1.6c0.6-0.5,0.4-2-0.2-2.4c0-1.3-0.2-1.8-0.7-3
			c-0.1-0.3,0.1-1.3-0.3-1.3c0,0,0-0.1,0-0.1c0,0,0,0,0,0c0-0.4-0.3-0.6-0.6-0.7c0.5-1.2-0.7-1.8-1.8-1.7c-1-0.9-2.7-1.1-3.9-0.9
			c-0.6,0.1-3.1,0.6-3.1,0.9c-0.4,0.1-0.7,0.1-0.9,0.6c-0.2,0.7-1.1,0.7-1.1,1.6c-0.8,0.1-1.4,4-1.5,4.8c-0.3,2-0.2,4.2,0.1,6.1
			c0,0.7,0.2,1,0.6,1.5c-1,1.3,1.6,3.9,2.5,4.3c0,0.2,0.1,0.4,0.4,0.5c1,0.8,3,1.2,4.2,1.2c0.9,0,4-1.3,4.1-2.5c0.5,0,0.7-0.5,0.6-1
			c0.3,0.1,0.6,0,0.6-0.4c0.1-0.5,0.4-1.2,0.6-1.8c0.4-0.5,0.7-1.9,0.6-2.6C164.5,120.4,164.6,120.2,164.6,119.9z M163.6,116.7
			C163.6,116.7,163.6,116.7,163.6,116.7C163.6,116.7,163.6,116.7,163.6,116.7C163.6,116.7,163.6,116.7,163.6,116.7z M152.4,120.2
			c-0.1-0.7,0-1.5-0.6-2.1c0.5-0.6,0.9-2.5,0.4-3.1c0.5,0,1.8-3.5,1.7-4.1c0.3-0.2,0.6-0.4,0.7-0.7c0.3,0,0.7,0,0.8-0.4
			c0.9,0,1.6-0.4,2.4-0.6c0.3,0.5,1.1,0.7,1.6,0.8c0.2,0.8,1.2,1.8,1.6,1.9c0,0.1,0.1,0.2,0.1,0.3c0.8,2.1,1,3.6,1,5.9
			c-0.1,0.1-1.1,4-0.8,4c-0.4,0.2-0.5,0.8-0.5,1.3c-0.5,0.3-1.1,0.9-1.3,1.4c-1.6,0-2.8,0.8-4.5,0.1c-0.9-0.4-1.6-1.8-2.4-2
			c-0.2-0.4,0.2-1-0.2-1.3C152.4,121.1,152.4,120.6,152.4,120.2z M159.8,126.4C159.8,126.4,159.8,126.4,159.8,126.4
			C159.8,126.4,159.8,126.4,159.8,126.4l0,0.3L159.8,126.4C159.8,126.4,159.8,126.4,159.8,126.4z"/>
	</g>
</g>
</svg>
